<svg width="337" height="242" viewBox="0 0 337 242" fill="none" xmlns="http://www.w3.org/2000/svg">
<path d="M149.972 189.821C143.781 187.564 140.538 183.897 139.948 178.821C139.948 177.263 138.628 176 137 176C135.372 176 134.052 177.263 134.052 178.821C133.462 183.897 130.219 187.564 124.028 189.821C122.819 190.201 122 191.281 122 192.5C122 193.719 122.819 194.799 124.028 195.179C130.219 197.436 133.462 201.103 134.052 206.179C134.052 207.737 135.372 209 137 209C138.628 209 139.948 207.737 139.948 206.179C140.538 201.103 143.781 197.436 149.972 195.179C151.181 194.799 152 193.719 152 192.5C152 191.281 151.181 190.201 149.972 189.821ZM137 197.718C135.506 195.684 133.602 193.958 131.399 192.641C133.55 191.15 135.442 189.341 137 187.282C138.558 189.341 140.449 191.15 142.601 192.641C140.398 193.958 138.494 195.684 137 197.718Z" fill="#0075FF"/>
<path d="M176.039 212.239C170.055 209.915 166.92 206.137 166.35 200.906C166.35 199.301 165.074 198 163.5 198C161.926 198 160.65 199.301 160.65 200.906C160.08 206.137 156.945 209.915 150.961 212.239C149.791 212.631 149 213.744 149 215C149 216.256 149.791 217.369 150.961 217.761C156.945 220.085 160.08 223.863 160.65 229.094C160.65 230.699 161.926 232 163.5 232C165.074 232 166.35 230.699 166.35 229.094C166.92 223.863 170.055 220.085 176.039 217.761C177.209 217.369 178 216.256 178 215C178 213.744 177.209 212.631 176.039 212.239ZM163.5 220.376C162.056 218.281 160.215 216.502 158.085 215.145C160.165 213.609 161.994 211.745 163.5 209.624C165.006 211.745 166.835 213.609 168.915 215.145C166.785 216.502 164.944 218.281 163.5 220.376Z" fill="#0075FF"/>
<path d="M204.556 225.147L144.211 164.732C143.045 163.675 142.952 161.877 144.002 160.716C145.053 159.555 146.851 159.471 148.017 160.528C156.464 168.183 164.503 172.625 171.131 174.05C167.109 170.826 165.094 166.804 160.269 163.176C151.825 157.127 141.984 154.888 138.577 158.29L134.554 154.263C140.766 148.058 153.823 151.913 163.472 158.769C173.122 165.625 172.533 172.248 183.775 172.283C186.458 170.749 188.62 168.449 189.986 165.677L195.582 152.846C196.697 150.312 198.518 148.155 200.829 146.632C203.139 145.107 205.842 144.282 208.615 144.253L215.441 144.274L215.209 25.0198C215.15 22.7673 216.016 20.5929 217.606 19.0044C219.197 17.4158 221.372 16.5522 223.625 16.6139C225.877 16.5662 228.055 17.4432 229.652 19.0416C231.249 20.64 232.123 22.8198 232.073 25.0719L232.305 144.326L239.131 144.347C241.904 144.394 244.61 145.236 246.926 146.775C249.243 148.312 251.072 150.48 252.197 153.021L257.844 166.288C266.324 191.209 253.108 208.835 240.685 221.243C228.262 233.652 214.212 234.813 204.556 225.147L204.556 225.147ZM233.416 199.942C222.801 212.958 215.78 215.948 204.742 217.318L207.558 220.137C217.395 219.967 227.221 214.175 233.416 199.942ZM204.897 194.232C199.497 197.111 193.675 199.126 187.643 200.201L190.66 203.222C196.186 201.679 201.134 198.555 204.897 194.232ZM169.739 182.277C172.552 183.089 182.795 185.329 189.814 181.536C194.872 178.471 199.293 174.464 202.84 169.732L194.408 169.706C188.604 178.722 178.172 182.705 165.917 178.451L169.739 182.277ZM226.449 25.0569C226.247 23.6572 225.046 22.6147 223.634 22.6102C222.221 22.6058 221.025 23.6409 220.828 25.0395L221.06 144.294L226.681 144.311L226.449 25.0569ZM246.978 155.412C246.328 153.851 245.242 152.508 243.853 151.543C242.463 150.577 240.825 150.03 239.138 149.968C237.733 150.164 217.256 150.101 218.259 149.903L208.622 149.873C206.974 149.874 205.367 150.371 204.009 151.297C202.651 152.224 201.604 153.538 201.004 155.069L197.006 164.292L251.01 164.26L246.978 155.412ZM253.029 169.886L235.563 170.033C234.971 175.05 231.983 186.885 218.357 200.093L214.334 196.066C226.357 184.459 229.148 174.43 229.741 169.814L209.866 169.953C207.463 173.158 200.655 182.372 192.633 186.764C187.69 189.055 182.206 189.94 176.778 189.325L182.008 194.56C184.289 194.86 186.604 194.731 188.833 194.18C197.253 191.877 205.243 188.242 212.502 183.412C213.535 182.724 214.899 182.789 215.869 183.575C216.837 184.36 217.184 185.684 216.725 186.838C216.325 187.64 209.528 202.475 195.284 207.852L199.307 211.879C207.538 211.704 214.16 209.918 217.968 206.918C228.995 199.123 237.999 183.692 237.999 183.692C238.495 182.197 240.112 181.393 241.609 181.896C243.107 182.399 243.918 184.02 243.423 185.515C243.223 186.117 241.252 204.581 229.029 216.79C225.053 220.883 219.966 223.726 214.39 224.975C221.22 227.406 229.045 224.82 236.659 217.215C252.889 201.003 257.879 186.363 253.028 169.887L253.029 169.886Z" fill="#0075FF"/>
<path d="M5.652 139L7.596 133.636H17.316L19.224 139H24.876L15.84 114.88H9.216L0.18 139H5.652ZM11.016 124.096L12.456 118.984L13.896 124.096L15.732 129.28H9.144L11.016 124.096ZM31.3816 139V129.244C31.3816 126.364 32.1736 124.996 34.6216 124.996C36.9616 124.996 37.5376 126.328 37.5376 128.488V139H42.6856V126.688C42.6856 123.052 40.6336 121 37.2856 121C33.6496 121 31.9576 123.592 31.3816 126.472V121.36H26.2336V139H31.3816ZM52.18 139.396C55.852 139.396 57.112 136.876 57.58 134.032V139H62.728V114.88H57.58V126.4C57.076 123.556 55.636 121 51.964 121C47.896 121 45.196 124.348 45.196 130.18C45.196 136.048 47.896 139.396 52.18 139.396ZM50.416 130.18C50.416 126.832 51.892 124.996 54.16 124.996C56.356 124.996 57.58 126.364 57.58 129.244V131.152C57.58 134.032 56.392 135.364 54.232 135.364C51.892 135.364 50.416 133.564 50.416 130.18ZM84.2543 139V119.452H91.4543V114.88H71.9063V119.452H79.1063V139H84.2543ZM98.9168 139V129.244C98.9168 126.364 99.7088 124.996 102.157 124.996C104.497 124.996 105.073 126.328 105.073 128.488V139H110.221V126.688C110.221 123.052 108.169 121 104.821 121C101.185 121 99.4928 123.592 98.9168 126.472V114.88H93.7688V139H98.9168ZM121.911 139.36C125.871 139.36 128.247 137.632 129.579 135.724L126.447 132.592C125.799 134.104 124.467 135.184 121.983 135.184C119.679 135.184 118.023 133.996 117.699 131.512H129.723C129.831 131.116 129.903 130.108 129.903 129.352C129.903 124.744 127.095 121 121.479 121C116.295 121 112.875 124.744 112.875 130.18C112.875 135.616 116.295 139.36 121.911 139.36ZM121.515 124.96C123.819 124.96 125.079 126.22 125.259 128.56H117.699C117.951 126.184 119.319 124.96 121.515 124.96ZM7.092 175V165.964L6.336 156.244L9.252 164.272L12.24 170.824H17.64L20.628 164.272L23.508 156.244L22.788 165.964V175H27.936V150.88H21.132L17.208 159.844L14.94 167.008L12.672 159.844L8.748 150.88H1.944V175H7.092ZM39.5325 175.36C45.0405 175.36 48.5325 171.58 48.5325 166.18C48.5325 160.816 45.0405 157 39.5325 157C34.1685 157 30.7125 160.816 30.7125 166.18C30.7125 171.58 34.1685 175.36 39.5325 175.36ZM39.6045 171.184C37.4445 171.184 35.9325 169.78 35.9325 166.18C35.9325 162.544 37.4445 161.176 39.6045 161.176C41.8005 161.176 43.3125 162.544 43.3125 166.18C43.3125 169.78 41.8005 171.184 39.6045 171.184ZM56.5886 181.696V169.996C57.0566 172.84 58.3166 175.36 61.9886 175.36C66.3086 175.36 68.9726 172.012 68.9726 166.18C68.9726 160.312 66.3086 156.964 62.2046 156.964C58.5326 156.964 57.0926 159.52 56.5886 162.364V157.36H51.4406V181.696H56.5886ZM56.5886 167.116V165.208C56.5886 162.328 57.7766 160.996 59.9366 160.996C62.2766 160.996 63.7526 162.832 63.7526 166.18C63.7526 169.528 62.2766 171.364 59.9366 171.364C57.7766 171.364 56.5886 169.996 56.5886 167.116Z" fill="#003877"/>
<path d="M25.216 102V69.872L22.528 35.312L32.896 63.856L43.52 87.152H62.72L73.344 63.856L83.584 35.312L81.024 69.872V102H99.328V16.24H75.136L61.184 48.112L53.12 73.584L45.056 48.112L31.104 16.24H6.912V102H25.216ZM140.56 103.28C160.144 103.28 172.56 89.84 172.56 70.64C172.56 51.568 160.144 38 140.56 38C121.488 38 109.2 51.568 109.2 70.64C109.2 89.84 121.488 103.28 140.56 103.28ZM140.816 88.432C133.136 88.432 127.76 83.44 127.76 70.64C127.76 57.712 133.136 52.848 140.816 52.848C148.624 52.848 154 57.712 154 70.64C154 83.44 148.624 88.432 140.816 88.432ZM201.204 102V16.24H182.9V102H201.204ZM232.454 102V16.24H214.15V102H232.454ZM261.272 125.04C273.048 125.04 280.856 119.792 285.72 105.84L308.248 39.28H287.64L278.808 68.848L274.072 89.84L269.464 68.848L260.504 39.28H240.28L260.632 97.904H271.768L270.488 101.232C268.44 107.248 265.624 108.912 260.76 108.912C255.256 108.912 250.648 105.712 246.68 101.104L239.384 116.464C243.736 120.944 251.8 125.04 261.272 125.04Z" fill="#0075FF"/>
</svg>
